<?xml version="1.0" encoding="UTF-8" standalone="no"?>
<!DOCTYPE svg PUBLIC "-//W3C//DTD SVG 1.1//EN" "http://www.w3.org/Graphics/SVG/1.1/DTD/svg11.dtd">
<svg xmlns="http://www.w3.org/2000/svg" version="1.1">
    <defs>
        <g id="qf_logo" fill="#044437">
            <g id="qf-logo-txt" transform="translate(0, 11.594203)">
                <g id="qf-logo-txt-ar">
                    <path d="M63.4453623,5.18217391 C64.2685507,5.18217391 64.8656522,4.53724638 64.8656522,3.74884058 C64.8656522,2.93289855 64.2685507,2.3184058 63.4453623,2.3184058 C62.5931884,2.3184058 61.9946377,2.93289855 61.9946377,3.74884058 C61.9946377,4.53724638 62.5931884,5.18217391 63.4453623,5.18217391" id="Fill-1"></path>
                    <path d="M54.9182609,13.3131884 C54.9182609,15.9784058 57.366087,17.6928986 59.2689855,17.6928986 C60.8617391,17.6928986 62.224058,16.9044928 62.9052174,15.2769565 L62.9052174,16.7653623 C62.9052174,18.3972464 62.2791304,19.5349275 60.8037681,19.5349275 L40.7342029,19.5450725 C40.2037681,13.69 37.6284058,10.0146377 33.5965217,10.0146377 C31.9776812,10.0146377 29.3081159,11.8943478 27.1486957,15.8552174 L27.6327536,5.21173913 L23.113913,5.4073913 L23.113913,6.33202899 C24.7342029,6.33202899 24.9052174,6.58710145 24.9052174,7.26101449 L24.9052174,17.3856522 C24.9052174,19.0436232 24.0515942,19.5537681 22.1501449,19.5537681 L8.73855072,19.5537681 C8.85884058,18.4552174 8.88927536,17.316087 8.88927536,16.1928986 L8.88927536,9.19869565 L5.11246377,9.9015942 C6.36028986,10.2943478 6.38782609,10.49 6.38782609,11.1653623 L6.38782609,18.2986957 C6.16463768,23.5784058 4.11536232,25.5711594 -0.000579710145,26.6697101 C1.04724638,26.7523188 1.67043478,26.7827536 2.04434783,26.7827536 C6.01971014,26.7827536 7.69217391,24.5928986 8.37913043,21.7262319 L21.2994203,21.7262319 L25.6515942,21.7262319 L52.682029,21.7262319 L61.513913,21.7262319 C63.9544928,21.7262319 65.3776812,20.4334783 65.3776812,18.0755072 L65.3776812,7.76391304 L63.2428986,7.76391304 C58.3878261,7.76391304 54.9182609,8.39289855 54.9182609,13.3131884 L54.9182609,13.3131884 Z M62.8762319,12.5784058 C62.8762319,14.8015942 61.5704348,16.7928986 59.8936232,16.8218841 C58.2486957,16.7378261 57.3921739,14.8015942 57.3921739,13.1421739 C57.3921739,8.95811594 60.0646377,8.66391304 62.5617391,8.66391304 L62.8762319,8.66391304 L62.8762319,12.5784058 Z M33.7095652,10.9131884 C35.866087,10.9131884 37.8298551,13.9291304 38.1095652,19.547971 L26.597971,19.5537681 C27.7168116,16.4015942 31.0342029,10.9131884 33.7095652,10.9131884 L33.7095652,10.9131884 Z" id="Fill-3"></path>
                    <path d="M59.3268116,5.18217391 C60.1789855,5.18217391 60.7775362,4.53724638 60.7775362,3.74884058 C60.7775362,2.93289855 60.1789855,2.3184058 59.3268116,2.3184058 C58.476087,2.3184058 57.8775362,2.93289855 57.8775362,3.74884058 C57.8775362,4.53724638 58.476087,5.18217391 59.3268116,5.18217391" id="Fill-6"></path>
                    <path d="M77.3607246,6.78217391 C78.1868116,6.78217391 78.8114493,6.13724638 78.8114493,5.35028986 C78.8114493,4.56333333 78.1868116,3.9184058 77.3607246,3.9184058 C76.4795652,3.9184058 75.9128986,4.56333333 75.9128986,5.35028986 C75.9128986,6.13724638 76.4795652,6.78217391 77.3607246,6.78217391" id="Fill-8"></path>
                    <path d="M81.4523188,6.78217391 C82.3044928,6.78217391 82.9015942,6.13724638 82.9015942,5.35028986 C82.9015942,4.56333333 82.3044928,3.9184058 81.4523188,3.9184058 C80.6001449,3.9184058 80.0015942,4.56333333 80.0015942,5.35028986 C80.0015942,6.13724638 80.6001449,6.78217391 81.4523188,6.78217391" id="Fill-10"></path>
                    <path d="M150.437391,11.1646377 L150.437391,17.6892754 C150.437391,19.3472464 149.785217,20.1385507 148.192464,20.1385507 C146.235942,20.1385507 145.125797,18.555942 145.125797,16.3602899 L145.125797,10.2095652 L141.347536,10.9124638 C142.59971,11.3327536 142.624348,11.4457971 142.624348,12.0371014 L142.624348,17.6892754 C142.624348,19.3472464 141.973623,20.1385507 140.356232,20.1385507 C138.589565,20.1385507 137.34029,18.855942 137.34029,16.9226087 L137.34029,11.2501449 L133.593913,11.924058 C134.870725,12.3443478 134.870725,12.4573913 134.870725,13.0747826 L134.870725,17.6892754 C134.870725,19.3472464 134.218551,19.5385507 132.653333,19.5385507 L120.976522,19.5385507 L120.609855,19.5385507 C118.993913,19.5385507 117.483768,18.6936232 117.483768,16.4994203 L117.483768,9.22695652 L113.792464,9.93130435 C115.017101,10.3211594 115.017101,10.5168116 115.017101,11.1646377 L115.017101,17.6892754 C115.017101,19.3472464 114.36058,20.1385507 112.773623,20.1385507 C110.809855,20.1385507 109.706957,18.1588406 109.706957,16.3602899 L109.706957,10.2356522 L105.924348,10.94 C107.173623,11.3617391 107.204058,11.4718841 107.204058,12.0631884 L107.204058,17.6892754 C107.204058,19.3472464 106.553333,20.1385507 104.931594,20.1385507 C103.170725,20.1385507 102.115652,18.6356522 101.922899,16.9226087 L101.922899,11.2501449 L98.1721739,11.924058 C99.4489855,12.3443478 99.4489855,12.4573913 99.4489855,13.0747826 L99.4489855,17.6414493 C99.4489855,19.3008696 98.7968116,19.5385507 97.2330435,19.5385507 L97.0910145,19.5385507 L96.5808696,19.5385507 L85.9953623,19.5385507 C84.6591304,19.424058 84.52,18.3805797 84.52,17.624058 L84.52,11.1646377 C84.52,10.5733333 84.5475362,9.8457971 84.7171014,9.11536232 L83.2982609,9.11536232 C83.0968116,9.31101449 83.1518841,9.4226087 83.0968116,9.53565217 C82.9881159,9.87478261 82.8417391,10.2356522 82.7837681,10.2356522 C82.7837681,10.2356522 82.6156522,10.1269565 82.304058,9.93130435 C81.6489855,9.50521739 80.5692754,8.80666667 78.9518841,8.80666667 C75.3721739,8.80666667 73.1301449,11.9805797 73.1301449,15.2095652 C73.1301449,18.6936232 75.3721739,21.7255072 78.3576812,21.7255072 C80.7721739,21.7255072 82.0489855,20.0153623 82.4721739,18.8037681 C82.4721739,21.3617391 84.0634783,21.697971 85.9953623,21.7255072 L86.762029,21.7255072 L96.5808696,21.7255072 L97.0910145,21.7255072 L97.8011594,21.7255072 C99.5910145,21.7255072 100.983768,21.0805797 101.637391,19.8168116 C102.59971,21.1066667 103.68087,21.7544928 105.588116,21.7544928 C107.347536,21.7544928 109.137391,20.713913 109.505507,19.366087 C110.101159,20.713913 111.517101,21.7544928 113.366377,21.7544928 C115.330145,21.7544928 116.805507,20.8849275 117.317101,19.3356522 C117.996812,20.7994203 119.617101,21.7544928 121.063478,21.7544928 L132.892464,21.7544928 L133.224348,21.7544928 C135.011304,21.7544928 136.433043,21.0805797 137.06058,19.7863768 C138.025797,21.0805797 139.104058,21.7255072 141.004058,21.7255072 C142.764928,21.7255072 144.557681,20.6863768 144.925797,19.3356522 C145.521449,20.6863768 146.944638,21.7255072 148.788116,21.7255072 C151.201159,21.7255072 152.94029,20.4327536 152.94029,18.0747826 L152.94029,9.19797101 L149.22,9.90231884 C150.437391,10.2950725 150.437391,10.4907246 150.437391,11.1646377 M81.7924638,18.2414493 C81.3373913,19.7342029 80.1171014,20.7718841 78.7228986,20.7718841 C77.5315942,20.7718841 75.7142029,19.5052174 75.7142029,15.3762319 C75.7142029,12.4834783 76.735942,9.78927536 78.9518841,9.78927536 C81.7924638,9.78927536 82.1069565,12.4573913 82.1069565,14.8457971 C82.1069565,16.3313043 82.0489855,17.3994203 81.7924638,18.2414493" id="Fill-12"></path>
                    <path d="M165.800435,5.74405797 L164.154058,5.74405797 C162.565652,5.74405797 161.685942,3.97594203 161.685942,2.93246377 C161.685942,2.14985507 162.081594,1.39043478 162.903333,1.39043478 C163.219275,1.39043478 163.587391,1.47449275 163.72942,1.69913043 C163.441014,1.92521739 163.19029,2.20637681 163.19029,2.51217391 C163.19029,2.99333333 163.700435,3.30057971 164.238116,3.30057971 C164.922174,3.30057971 165.322174,3.13246377 165.322174,2.31942029 C165.322174,1.30492754 164.298986,0.491884058 162.991739,0.491884058 C161.087391,0.491884058 159.977246,1.81072464 159.977246,3.32811594 C159.977246,4.39478261 160.745362,5.2657971 161.513478,5.74405797 L159.74971,5.74405797 L159.354058,6.72666667 L165.800435,6.72666667 L165.800435,5.74405797 Z" id="Fill-14"></path>
                    <path d="M187.37971,11.1646377 C183.315942,11.1936232 182.407246,13.7776812 181.77971,16.1385507 C181.127536,18.44 180.472464,19.5385507 177.208696,19.5385507 L175.450725,19.5385507 L169.46087,19.5385507 L166.421739,19.5385507 C166.56087,18.3269565 166.513043,17.9907246 166.513043,16.1921739 L166.513043,9.31101449 L164.353623,9.31101449 C159.523188,9.31101449 156.06087,12.4573913 156.06087,17.3428986 C156.06087,20.04 158.504348,21.7255072 160.404348,21.7255072 L163.673913,21.7255072 C162.62029,25.2950725 160.007246,26.1921739 157.963768,26.6428986 L157.282609,26.7515942 C158.302899,26.8385507 159.211594,26.8950725 159.613043,26.8950725 C161.914493,26.8950725 164.865217,26.2197101 166.056522,21.7255072 L169.46087,21.7255072 L175.450725,21.7255072 L178.8,21.7255072 C180.272464,21.7255072 181.298551,21.2486957 181.975362,20.5472464 C182.886957,21.5878261 184.053623,22.9342029 186.666667,22.9342029 C190.701449,22.9342029 192.686957,19.9008696 192.686957,17.1762319 C192.686957,14.5921739 190.843478,11.1646377 187.37971,11.1646377 L187.37971,11.1646377 Z M161.027536,19.5385507 C159.407246,19.5385507 158.528986,18.8327536 158.528986,17.1762319 C158.528986,12.9921739 161.202899,10.182029 163.698551,10.182029 L164.015942,10.182029 L164.015942,19.5385507 L161.027536,19.5385507 Z M164.018841,19.5385507 L164.018841,19.5385507 C164.018841,19.5008696 164.018841,19.4805797 164.018841,19.5385507 L164.018841,19.5385507 Z M186.749275,21.7255072 C184.988406,21.7255072 183.824638,20.6284058 183.088406,19.7863768 L182.831884,19.4515942 C183.404348,18.3805797 183.627536,17.2892754 183.94058,16.2747826 C184.510145,14.0863768 185.076812,12.0631884 186.897101,12.0631884 L187.007246,12.0631884 C189.050725,12.1486957 190.075362,14.6486957 190.075362,17.3153623 C190.075362,19.8718841 188.542029,21.7255072 186.749275,21.7255072 L186.749275,21.7255072 Z" id="Fill-16"></path>
                </g>
                <g id="qf-logo-txt-en" transform="translate(0, 31.884058)">
                    <path d="M6.54289855,22.5091304 L6.54289855,21.6830435 C7.92550725,20.6265217 9.0226087,19.9584058 9.83130435,19.6786957 C7.69652174,19.6786957 5.96753623,19.3308696 4.6515942,18.627971 C3.3342029,17.9265217 2.27768116,16.8221739 1.48637681,15.3178261 C0.687826087,13.8163768 0.293623188,12.1352174 0.293623188,10.285942 C0.293623188,7.56275362 1.19072464,5.32797101 2.99217391,3.57 C4.78927536,1.81782609 7.15449275,0.941014493 10.0863768,0.941014493 C11.5486957,0.941014493 12.855942,1.14971014 14.013913,1.56565217 C15.1718841,1.97869565 16.1327536,2.54536232 16.897971,3.27 C17.6588406,3.99173913 18.2472464,4.78594203 18.6501449,5.6584058 C19.2008696,6.83376812 19.4747826,8.17724638 19.4747826,9.70188406 C19.4747826,11.5105797 19.097971,13.1453623 18.3414493,14.6004348 C17.5849275,16.0613043 16.4791304,17.2366667 15.0284058,18.1323188 C13.5747826,19.027971 11.9356522,19.5453623 10.1095652,19.6786957 C10.5675362,19.743913 10.9791304,19.8178261 11.3428986,19.9033333 C11.7037681,19.9902899 12.2284058,20.1743478 12.9124638,20.4511594 C14.4515942,21.0714493 15.5704348,21.4714493 16.2762319,21.6511594 C16.9805797,21.8337681 17.5863768,21.9236232 18.0950725,21.9236232 C18.4298551,21.9236232 18.8791304,21.8337681 19.4356522,21.6584058 L19.4356522,22.3033333 C19.2675362,22.4308696 19.0646377,22.5569565 18.8298551,22.6830435 C18.3834783,22.9395652 18.0718841,23.1294203 17.8994203,23.2511594 C17.7255072,23.3728986 17.5530435,23.5149275 17.3834783,23.6728986 C17.2646377,23.6728986 16.9936232,23.6410145 16.5617391,23.585942 C16.1327536,23.5250725 15.6907246,23.4381159 15.24,23.3105797 C14.7863768,23.1946377 13.9907246,22.927971 12.8515942,22.5323188 C10.6965217,21.796087 9.37478261,21.4308696 8.88782609,21.4308696 C8.71681159,21.4308696 8.53855072,21.4598551 8.35594203,21.5192754 C8.17043478,21.5815942 7.95884058,21.6743478 7.71971014,21.8076812 L6.54289855,22.5091304 Z M2.9284058,9.63666667 C2.9284058,10.4656522 3.04144928,11.3627536 3.26608696,12.327971 C3.48927536,13.2902899 3.78927536,14.1366667 4.17913043,14.8642029 C4.56173913,15.5917391 5.03710145,16.2265217 5.60231884,16.7772464 C6.16753623,17.3294203 6.82115942,17.7598551 7.56608696,18.0685507 C8.30811594,18.3815942 9.17623188,18.5410145 10.1747826,18.5410145 C11.5356522,18.5410145 12.7226087,18.2265217 13.7342029,17.5989855 C14.7486957,16.9757971 15.5110145,16.0468116 16.0269565,14.8105797 C16.5385507,13.5786957 16.8023188,12.1671014 16.8023188,10.5888406 C16.8023188,9.2873913 16.6269565,8.08449275 16.2733333,6.9757971 C15.924058,5.86855072 15.4501449,4.96275362 14.8486957,4.25550725 C14.2486957,3.54971014 13.4936232,3.00043478 12.582029,2.61057971 C11.6689855,2.21492754 10.6573913,2.01927536 9.54,2.01927536 C7.50811594,2.01927536 5.89507246,2.65550725 4.70811594,3.93231884 C3.52405797,5.20768116 2.9284058,7.11057971 2.9284058,9.63666667 L2.9284058,9.63666667 Z" id="Fill-18"></path>
                    <path d="M22.4708696,10.6289855 L21.8027536,10.4507246 C21.8056522,10.2550725 21.8128986,9.98985507 21.8128986,9.64927536 C21.8128986,9.2942029 21.8056522,9.01304348 21.8027536,8.8 C22.8723188,8.10144928 23.7534783,7.62898551 24.4375362,7.3826087 C24.9650725,7.20434783 25.5549275,7.11449275 26.2042029,7.11449275 C27.1694203,7.11449275 27.9824638,7.29855072 28.6418841,7.66086957 C29.3027536,8.02463768 29.794058,8.54637681 30.1157971,9.22028986 C30.3346377,9.69565217 30.4476812,10.3405797 30.4476812,11.1623188 L30.3824638,13.4797101 L30.3824638,17.257971 C30.3824638,17.6637681 30.4157971,17.957971 30.483913,18.1333333 C30.5331884,18.2608696 30.6157971,18.3565217 30.7215942,18.4130435 C30.8085507,18.4637681 30.9853623,18.4956522 31.2563768,18.5144928 L32.0824638,18.5898551 L32.0824638,19.3144928 C31.3868116,19.2536232 30.7781159,19.226087 30.2549275,19.226087 C29.7476812,19.226087 29.0723188,19.2536232 28.225942,19.3144928 L28.2926087,17.0797101 C26.5636232,18.3826087 25.5433333,19.115942 25.2201449,19.2797101 C24.8998551,19.4463768 24.494058,19.5289855 24.0042029,19.5289855 C22.983913,19.5289855 22.1853623,19.2550725 21.6128986,18.7115942 C21.0462319,18.1637681 20.7578261,17.4391304 20.7578261,16.5362319 C20.7578261,15.9536232 20.8578261,15.4188406 21.0534783,14.9376812 C21.2549275,14.4565217 21.494058,14.073913 21.7737681,13.7913043 C22.0534783,13.5086957 22.3375362,13.2985507 22.6215942,13.1623188 C23.1114493,12.9333333 23.9085507,12.6927536 25.0128986,12.4275362 C26.1157971,12.1681159 27.2056522,11.9710145 28.2926087,11.8463768 C28.2984058,11.0405797 28.2027536,10.4173913 27.9969565,9.96666667 C27.7955072,9.51884058 27.4534783,9.15072464 26.9723188,8.86376812 C26.4897101,8.57971014 25.9042029,8.43478261 25.21,8.43478261 C24.7114493,8.43478261 24.2737681,8.50144928 23.8969565,8.63913043 C23.5201449,8.77246377 23.2897101,8.88550725 23.2085507,8.97971014 L22.9781159,9.43768116 C22.7491304,9.94492754 22.5766667,10.3405797 22.4708696,10.6289855 L22.4708696,10.6289855 Z M28.2926087,12.6188406 C27.1926087,12.8028986 26.252029,13.0101449 25.4737681,13.2362319 C24.6998551,13.4681159 24.1491304,13.7057971 23.825942,13.9492754 C23.6302899,14.0913043 23.4650725,14.3086957 23.3201449,14.5942029 C23.0984058,15.0188406 22.9882609,15.4869565 22.9882609,16.0014493 C22.9882609,16.6304348 23.1636232,17.1173913 23.5114493,17.4681159 C23.8578261,17.8188406 24.3389855,17.9942029 24.9563768,17.9942029 C25.5230435,17.9942029 26.0824638,17.8304348 26.6375362,17.5043478 C27.1911594,17.1811594 27.7389855,16.6927536 28.2926087,16.042029 L28.2926087,12.6188406 Z" id="Fill-21"></path>
                    <path d="M31.9746377,9.37217391 L31.9746377,8.84173913 C32.7891304,8.51710145 33.434058,8.22869565 33.9123188,7.97942029 L33.9123188,4.12144928 C34.7905797,3.81855072 35.507971,3.49536232 36.0557971,3.14753623 L36.3601449,3.39971014 C36.2673913,4.10405797 36.1673913,5.65043478 36.0557971,8.04173913 C36.7311594,8.04753623 37.1398551,8.05333333 37.2746377,8.05333333 C37.35,8.05333333 37.7862319,8.04463768 38.5818841,8.03014493 C39.0210145,8.02144928 39.3471014,8.00405797 39.5688406,7.97942029 L39.6557971,8.06927536 L39.3891304,9.24463768 C38.8572464,9.23884058 38.3673913,9.23304348 37.9210145,9.23304348 C37.4746377,9.23304348 36.8528986,9.23884058 36.0557971,9.24463768 L35.992029,14.4069565 C35.9688406,15.6649275 35.9746377,16.4171014 36.0181159,16.6634783 C36.0630435,16.9098551 36.1398551,17.1228986 36.2586957,17.304058 C36.3746377,17.4852174 36.5297101,17.6315942 36.7195652,17.7402899 C36.907971,17.8489855 37.2311594,17.9373913 37.6862319,17.993913 C38.0297101,17.993913 38.3094203,17.9765217 38.5268116,17.9489855 C38.7413043,17.92 39.0137681,17.8475362 39.3413043,17.7286957 L39.492029,18.2214493 C39.0949275,18.5373913 38.7108696,18.8605797 38.3413043,19.1968116 C38.0181159,19.3185507 37.7166667,19.3953623 37.4398551,19.4344928 C37.1615942,19.4721739 36.8398551,19.4881159 36.4789855,19.4881159 C36.0311594,19.4881159 35.6731884,19.4402899 35.4094203,19.335942 C35.1456522,19.235942 34.9021739,19.0924638 34.6804348,18.9142029 C34.4601449,18.7330435 34.2789855,18.504058 34.134058,18.2214493 C33.9891304,17.9402899 33.8934783,17.504058 33.85,16.9011594 C33.8601449,16.3301449 33.8746377,15.6982609 33.9007246,15.0127536 C33.9108696,14.8808696 33.9123188,14.7301449 33.9123188,14.5692754 L33.9123188,9.30985507 L33.3949275,9.30985507 C32.9731884,9.30985507 32.4992754,9.33014493 31.9746377,9.37217391" id="Fill-23"></path>
                    <path d="M42.0913043,10.6289855 L41.4173913,10.4507246 C41.4289855,10.2550725 41.4333333,9.98985507 41.4333333,9.64927536 C41.4333333,9.2942029 41.4289855,9.01304348 41.4173913,8.8 C42.4942029,8.10144928 43.3753623,7.62898551 44.0608696,7.3826087 C44.5884058,7.20434783 45.1753623,7.11449275 45.8289855,7.11449275 C46.7898551,7.11449275 47.6043478,7.29855072 48.2637681,7.66086957 C48.9231884,8.02463768 49.4130435,8.54637681 49.7362319,9.22028986 C49.957971,9.69565217 50.0681159,10.3405797 50.0681159,11.1623188 L50.0028986,13.4797101 L50.0028986,17.257971 C50.0028986,17.6637681 50.0362319,17.957971 50.1057971,18.1333333 C50.1521739,18.2608696 50.2362319,18.3565217 50.3434783,18.4130435 C50.4318841,18.4637681 50.6086957,18.4956522 50.8782609,18.5144928 L51.7028986,18.5898551 L51.7028986,19.3144928 C51.0072464,19.2536232 50.4014493,19.226087 49.8768116,19.226087 C49.3695652,19.226087 48.6942029,19.2536232 47.8463768,19.3144928 L47.9115942,17.0797101 C46.1855072,18.3826087 45.1637681,19.115942 44.8434783,19.2797101 C44.5217391,19.4463768 44.115942,19.5289855 43.626087,19.5289855 C42.6043478,19.5289855 41.8057971,19.2550725 41.2362319,18.7115942 C40.6666667,18.1637681 40.3768116,17.4391304 40.3768116,16.5362319 C40.3768116,15.9536232 40.4811594,15.4188406 40.6768116,14.9376812 C40.8782609,14.4565217 41.1144928,14.073913 41.3942029,13.7913043 C41.673913,13.5086957 41.9565217,13.2985507 42.242029,13.1623188 C42.7318841,12.9333333 43.5304348,12.6927536 44.6347826,12.4275362 C45.7376812,12.1681159 46.8289855,11.9710145 47.9115942,11.8463768 C47.9202899,11.0405797 47.8217391,10.4173913 47.6188406,9.96666667 C47.415942,9.51884058 47.073913,9.15072464 46.5913043,8.86376812 C46.1086957,8.57971014 45.5217391,8.43478261 44.8318841,8.43478261 C44.3318841,8.43478261 43.8927536,8.50144928 43.5188406,8.63913043 C43.1434783,8.77246377 42.9130435,8.88550725 42.8246377,8.97971014 L42.5985507,9.43768116 C42.3710145,9.94492754 42.2014493,10.3405797 42.0913043,10.6289855 L42.0913043,10.6289855 Z M47.9115942,12.6188406 C46.8130435,12.8028986 45.873913,13.0101449 45.0971014,13.2362319 C44.3173913,13.4681159 43.7681159,13.7057971 43.4492754,13.9492754 C43.2550725,14.0913043 43.0869565,14.3086957 42.9405797,14.5942029 C42.7217391,15.0188406 42.6115942,15.4869565 42.6115942,16.0014493 C42.6115942,16.6304348 42.7855072,17.1173913 43.1289855,17.4681159 C43.4797101,17.8188406 43.957971,17.9942029 44.5782609,17.9942029 C45.142029,17.9942029 45.7043478,17.8304348 46.2594203,17.5043478 C46.8101449,17.1811594 47.3608696,16.6927536 47.9115942,16.042029 L47.9115942,12.6188406 Z" id="Fill-25"></path>
                    <path d="M52.3989855,19.3133333 L52.3989855,18.5915942 C53.3598551,18.5713043 53.8786957,18.5568116 53.9555072,18.5423188 C54.1018841,18.5147826 54.2076812,18.4727536 54.2815942,18.4205797 C54.354058,18.364058 54.412029,18.2857971 54.454058,18.1843478 C54.5381159,17.9915942 54.5888406,17.6857971 54.6033333,17.2713043 C54.6497101,15.0133333 54.67,13.837971 54.67,13.7336232 L54.67,12.222029 C54.67,11.5495652 54.6598551,10.8234783 54.6308696,10.0437681 C54.6149275,9.54521739 54.5815942,9.25101449 54.5236232,9.15681159 C54.4685507,9.06405797 54.3714493,8.99304348 54.2323188,8.94956522 C54.0931884,8.89884058 53.5410145,8.88434783 52.5757971,8.8915942 L52.5757971,8.16985507 C54.2844928,7.93217391 55.5308696,7.62347826 56.3178261,7.24376812 C56.4873913,7.16115942 56.5989855,7.11623188 56.6584058,7.11623188 C56.7192754,7.11623188 56.7656522,7.13797101 56.7975362,7.17855072 C56.8352174,7.22057971 56.8497101,7.2857971 56.8497101,7.36985507 C56.8497101,7.43072464 56.8468116,7.49594203 56.8381159,7.57275362 C56.7946377,8.08724638 56.7714493,8.88724638 56.7627536,9.96695652 C57.1410145,9.52782609 57.4946377,9.09449275 57.8134783,8.66115942 C58.1337681,8.23072464 58.3671014,7.95101449 58.5105797,7.82637681 C58.7656522,7.60608696 59.0569565,7.43217391 59.385942,7.30028986 C59.7163768,7.16695652 60.0555072,7.10463768 60.4134783,7.10463768 C60.7656522,7.10463768 61.1192754,7.17855072 61.4642029,7.33072464 L61.5424638,7.50753623 C61.4163768,8.63072464 61.343913,9.62202899 61.3265217,10.4756522 L60.7569565,10.4756522 C60.5613043,10.0713043 60.3366667,9.7742029 60.0786957,9.58724638 C59.8207246,9.40318841 59.4946377,9.30898551 59.1062319,9.30898551 C58.4555072,9.30898551 57.9047826,9.57855072 57.443913,10.1133333 C56.9917391,10.6495652 56.7627536,11.4553623 56.7627536,12.5278261 L56.7627536,13.837971 C56.7627536,14.3915942 56.7815942,15.4104348 56.8265217,16.8901449 C56.8352174,17.4147826 56.854058,17.7481159 56.8888406,17.8915942 C56.9236232,18.0365217 56.9656522,18.137971 57.0192754,18.2031884 C57.0786957,18.2655072 57.1685507,18.3205797 57.296087,18.3626087 C57.5497101,18.437971 58.2323188,18.5147826 59.3482609,18.5915942 L59.3482609,19.3133333 C57.8613043,19.253913 56.5946377,19.2234783 55.5453623,19.2234783 C54.4613043,19.2234783 53.4149275,19.253913 52.3989855,19.3133333" id="Fill-27"></path>
                    <path d="M68.072029,2.12014493 L68.072029,1.31 C69.356087,1.36797101 70.4473913,1.3984058 71.3430435,1.3984058 C71.9763768,1.3984058 73.114058,1.37666667 74.7546377,1.34188406 C76.3937681,1.30275362 77.4995652,1.28246377 78.0763768,1.28246377 C78.6923188,1.28246377 79.256087,1.29115942 79.7691304,1.30275362 C80.2792754,1.31144928 80.7415942,1.33608696 81.156087,1.37231884 C80.9444928,2.09115942 80.8111594,3.37086957 80.7502899,5.21434783 L79.9502899,5.21434783 C79.8763768,4.1926087 79.7691304,3.40565217 79.6357971,2.85347826 C79.1952174,2.70275362 78.6502899,2.59115942 78.0068116,2.51869565 C77.3575362,2.44623188 76.6126087,2.41144928 75.756087,2.41144928 C74.9010145,2.41144928 74.0184058,2.46217391 73.1082609,2.56507246 C73.0546377,3.02014493 73.0213043,3.44478261 73.0024638,3.84188406 C72.9966667,4.07086957 72.9734783,5.03608696 72.9415942,6.74043478 L72.9415942,9.55057971 C73.887971,9.57666667 74.7227536,9.58681159 75.4488406,9.58681159 C76.5242029,9.58681159 77.3836232,9.53318841 78.0242029,9.42304348 C78.2691304,9.38101449 78.4285507,9.31 78.4995652,9.2157971 C78.5734783,9.1157971 78.6502899,8.76072464 78.7343478,8.14188406 L78.8357971,7.35782609 L79.6357971,7.35782609 L79.545942,10.2476812 L79.6357971,13.3549275 L78.8357971,13.3549275 L78.7488406,12.5418841 C78.6531884,11.6230435 78.5894203,11.1244928 78.545942,11.0592754 C78.4749275,10.9404348 78.3169565,10.8505797 78.0647826,10.7911594 C77.5821739,10.683913 76.4908696,10.6273913 74.7923188,10.6273913 C74.1923188,10.6273913 73.5778261,10.6433333 72.9415942,10.6766667 L72.9415942,13.2389855 C72.9415942,14.3882609 72.9575362,15.5085507 72.9937681,16.5984058 C73.0082609,17.4027536 73.0647826,17.8810145 73.1618841,18.0317391 C73.2604348,18.183913 73.4169565,18.2955072 73.6372464,18.367971 C73.8575362,18.4418841 74.4676812,18.483913 75.4662319,18.5042029 L75.4662319,19.3143478 C74.3908696,19.2534783 73.3213043,19.225942 72.256087,19.225942 C71.2995652,19.225942 69.9068116,19.2534783 68.072029,19.3143478 L68.072029,18.5042029 C69.0662319,18.483913 69.6705797,18.4418841 69.8865217,18.367971 C70.1053623,18.2955072 70.2589855,18.1984058 70.3401449,18.0708696 C70.4415942,17.9042029 70.5097101,17.4911594 70.5314493,16.8418841 C70.5401449,16.6636232 70.5633333,15.4665217 70.5952174,13.2447826 L70.5952174,7.37666667 C70.5952174,6.23318841 70.5821739,5.10710145 70.556087,4.00855072 C70.5314493,3.2042029 70.4705797,2.73173913 70.3734783,2.58391304 C70.2763768,2.43463768 70.1198551,2.3273913 69.9068116,2.25347826 C69.6894203,2.18246377 69.0792754,2.13753623 68.072029,2.12014493" id="Fill-29"></path>
                    <path d="M81.6886957,13.4737681 C81.6886957,11.5795652 82.2915942,10.0317391 83.4973913,8.83463768 C84.7017391,7.63753623 86.2452174,7.03898551 88.1263768,7.03898551 C89.9046377,7.03898551 91.3510145,7.59695652 92.4655072,8.71869565 C93.5814493,9.83028986 94.1365217,11.2723188 94.1365217,13.0404348 C94.1365217,14.2781159 93.8510145,15.4071014 93.2771014,16.4317391 C92.7031884,17.4534783 91.8930435,18.2592754 90.8408696,18.8375362 C89.795942,19.4157971 88.6394203,19.7056522 87.3814493,19.7056522 C86.4017391,19.7056522 85.5727536,19.5389855 84.8901449,19.2114493 C84.2089855,18.8795652 83.6597101,18.4665217 83.2350725,17.9665217 C82.8133333,17.4694203 82.4930435,16.9578261 82.2713043,16.4317391 C81.8843478,15.5085507 81.6886957,14.5230435 81.6886957,13.4737681 M84.0828986,12.5346377 C84.0828986,13.5752174 84.2582609,14.6331884 84.6031884,15.7071014 C84.9524638,16.7824638 85.4524638,17.5665217 86.1104348,18.0650725 C86.7626087,18.5578261 87.4756522,18.8042029 88.2408696,18.8042029 C89.2249275,18.8042029 90.0452174,18.4157971 90.7017391,17.6346377 C91.364058,16.8563768 91.6901449,15.6621739 91.6901449,14.0476812 C91.6901449,12.7013043 91.4944928,11.5404348 91.1046377,10.5607246 C90.7118841,9.58246377 90.2089855,8.89405797 89.6002899,8.49115942 C88.9915942,8.08681159 88.3205797,7.88826087 87.5828986,7.88826087 C86.5452174,7.88826087 85.7031884,8.26507246 85.0510145,9.02014493 C84.4075362,9.77086957 84.0828986,10.9433333 84.0828986,12.5346377" id="Fill-31"></path>
                    <path d="M109.47971,18.5914493 L109.47971,19.3131884 C108.371014,19.2537681 107.534783,19.2247826 106.971014,19.2247826 C106.344928,19.2247826 105.711594,19.2537681 105.068116,19.3131884 C105.12029,18.6276812 105.16087,17.8581159 105.182609,17.0030435 C104.673913,17.4117391 104.073913,17.9624638 103.369565,18.6653623 C103.208696,18.8262319 103.052174,18.9436232 102.898551,19.0218841 C102.537681,19.2247826 102.173913,19.3697101 101.813043,19.4581159 C101.447826,19.547971 101.014493,19.59 100.507246,19.59 C99.8202899,19.59 99.2521739,19.5001449 98.7884058,19.3131884 C98.3318841,19.1291304 97.9347826,18.8436232 97.6072464,18.463913 C97.3594203,18.1842029 97.1681159,17.8218841 97.0362319,17.3798551 C96.9028986,16.9363768 96.8391304,16.4015942 96.8391304,15.7755072 C96.8391304,15.4784058 96.8507246,15.1986957 96.8724638,14.9378261 C96.8913043,14.6769565 96.9028986,14.4189855 96.9028986,14.1653623 L96.9028986,11.9957971 C96.9028986,11.7755072 96.8898551,11.2233333 96.8652174,10.3349275 C96.8507246,9.77985507 96.8130435,9.41463768 96.7521739,9.24507246 C96.7173913,9.15956522 96.6608696,9.09434783 96.5869565,9.04072464 C96.4594203,8.95956522 96.2362319,8.91753623 95.915942,8.91753623 C95.4507246,8.91753623 95.0826087,8.91318841 94.8101449,8.90304348 L94.8101449,8.17695652 C96.6275362,7.97695652 97.9478261,7.65376812 98.7666667,7.20594203 C98.9014493,7.12768116 99.0072464,7.09 99.0826087,7.09 C99.142029,7.09 99.1913043,7.11028986 99.2318841,7.15231884 C99.2666667,7.19289855 99.2869565,7.25811594 99.2869565,7.34362319 C99.2869565,7.41318841 99.2869565,7.4957971 99.2753623,7.59724638 C99.2434783,7.87115942 99.2086957,8.39 99.184058,9.15811594 C99.1318841,10.5697101 99.1086957,11.5146377 99.1086957,11.9957971 L99.1086957,14.4682609 C99.1086957,15.4972464 99.1811594,16.2233333 99.3173913,16.6421739 C99.4565217,17.0624638 99.7275362,17.3972464 100.131884,17.6436232 C100.530435,17.8972464 101.024638,18.0189855 101.62029,18.0189855 C102.024638,18.0189855 102.428986,17.9494203 102.828986,17.8073913 C103.230435,17.6682609 103.594203,17.4697101 103.911594,17.2044928 C104.149275,17.0102899 104.391304,16.7494203 104.636232,16.4233333 C104.82029,16.1769565 104.946377,15.9871014 105.002899,15.8552174 C105.065217,15.7247826 105.102899,15.532029 105.12029,15.2798551 C105.16087,14.5378261 105.182609,13.7957971 105.182609,13.0624638 L105.182609,11.9957971 C105.182609,11.7755072 105.169565,11.2233333 105.146377,10.3349275 C105.126087,9.77985507 105.091304,9.41463768 105.031884,9.24507246 C104.997101,9.15956522 104.942029,9.09434783 104.863768,9.04072464 C104.73913,8.95956522 104.514493,8.91753623 104.192754,8.91753623 C103.728986,8.91753623 103.36087,8.91318841 103.092754,8.90304348 L103.092754,8.17695652 C104.905797,7.97695652 106.217391,7.65376812 107.034783,7.20594203 C107.171014,7.12768116 107.273913,7.09 107.350725,7.09 C107.407246,7.09 107.45942,7.11028986 107.497101,7.15231884 C107.533333,7.19289855 107.552174,7.25811594 107.552174,7.34362319 C107.552174,7.41318841 107.549275,7.4957971 107.54058,7.59724638 C107.517391,7.87115942 107.488406,8.40449275 107.46087,9.2073913 C107.411594,10.5856522 107.389855,11.5146377 107.389855,11.9957971 L107.389855,13.7334783 L107.414493,15.4972464 C107.444928,16.5175362 107.468116,17.1204348 107.478261,17.2957971 C107.486957,17.7175362 107.531884,18.0276812 107.615942,18.2233333 C107.656522,18.2972464 107.713043,18.3624638 107.781159,18.4189855 C107.846377,18.4726087 107.946377,18.516087 108.084058,18.5523188 C108.131884,18.5595652 108.6,18.5697101 109.47971,18.5914493" id="Fill-33"></path>
                    <path d="M109.976522,19.3133333 L109.976522,18.5915942 L111.191014,18.5771014 C111.367826,18.5713043 111.506957,18.537971 111.604058,18.4814493 C111.702609,18.4278261 111.775072,18.3568116 111.828696,18.2713043 C111.921449,18.1017391 111.977971,17.8046377 112.006957,17.3713043 C112.006957,17.2611594 112.027246,16.0495652 112.067826,13.7336232 L112.067826,12.222029 C112.067826,11.5495652 112.056232,10.8234783 112.027246,10.0437681 C112.006957,9.54521739 111.963478,9.25101449 111.909855,9.15681159 C111.853333,9.06405797 111.75913,8.99304348 111.624348,8.94956522 C111.489565,8.89884058 110.938841,8.88434783 109.976522,8.8915942 L109.976522,8.16985507 C111.686667,7.93217391 112.930145,7.62347826 113.717101,7.24376812 C113.885217,7.16115942 113.998261,7.11623188 114.05913,7.11623188 C114.117101,7.11623188 114.164928,7.13797101 114.19971,7.17855072 C114.235942,7.22057971 114.248986,7.2857971 114.248986,7.36985507 C114.248986,7.43072464 114.246087,7.49594203 114.235942,7.57275362 C114.211304,7.87710145 114.188116,8.51768116 114.16058,9.50028986 L116.518551,7.48434783 C117.212754,7.23217391 117.867826,7.10463768 118.483768,7.10463768 C119.170725,7.10463768 119.815652,7.24376812 120.433043,7.52057971 C121.041739,7.79884058 121.504058,8.15246377 121.811304,8.57130435 C122.12,8.9973913 122.325797,9.52782609 122.427246,10.1727536 C122.488116,10.5524638 122.515652,11.6133333 122.515652,13.353913 L122.515652,15.5973913 C122.515652,16.6944928 122.544638,17.4452174 122.59971,17.8408696 C122.644638,18.095942 122.711304,18.2684058 122.801159,18.3684058 C122.889565,18.464058 123.028696,18.5263768 123.212754,18.5524638 L124.567826,18.5915942 L124.567826,19.3133333 C123.741739,19.253913 123.053333,19.2234783 122.505507,19.2234783 C122.030145,19.2234783 121.244638,19.253913 120.146087,19.3133333 C120.264928,17.2249275 120.322899,15.906087 120.322899,15.3553623 L120.322899,13.2263768 C120.322899,11.9002899 120.273623,11.0278261 120.169275,10.6147826 C120.030145,10.0510145 119.698261,9.59304348 119.192464,9.24666667 C118.686667,8.8973913 118.075072,8.72637681 117.356232,8.72637681 C116.722899,8.72637681 116.144638,8.8742029 115.62,9.17710145 C115.096812,9.4742029 114.722899,9.82202899 114.498261,10.2133333 C114.270725,10.6089855 114.16058,11.2684058 114.16058,12.2017391 L114.16058,13.7336232 C114.204058,15.9307246 114.227246,17.122029 114.227246,17.2944928 C114.24029,17.7176812 114.292464,18.0278261 114.38087,18.2205797 C114.414203,18.2988406 114.46058,18.364058 114.531594,18.4205797 C114.59971,18.4727536 114.708406,18.5176812 114.850435,18.5524638 C114.898261,18.5582609 115.367826,18.5713043 116.253333,18.5915942 L116.253333,19.3133333 C115.221449,19.253913 114.288116,19.2234783 113.450435,19.2234783 C112.74029,19.2234783 111.583768,19.253913 109.976522,19.3133333" id="Fill-35"></path>
                    <path d="M132.321449,2.09463768 L132.321449,1.37289855 C133.26058,1.27144928 134.054783,1.1526087 134.702609,1.00913043 C135.348986,0.871449275 135.977971,0.701884058 136.595362,0.494637681 L136.76058,0.612028986 C136.725797,1.33086957 136.689565,2.71637681 136.646087,4.77144928 L136.595362,6.80043478 L136.595362,14.7366667 C136.595362,15.596087 136.612754,16.343913 136.64029,16.9757971 C136.672174,17.6033333 136.722899,17.9772464 136.798261,18.1033333 C136.872174,18.2250725 137.001159,18.3221739 137.177971,18.4004348 C137.357681,18.4757971 137.886667,18.5511594 138.763478,18.627971 L138.763478,19.3149275 C137.734493,19.254058 137.006957,19.2250725 136.583768,19.2250725 C136.22,19.2250725 135.476522,19.254058 134.350435,19.3149275 C134.377971,18.7308696 134.401159,17.9410145 134.415652,16.954058 C134.08087,17.1975362 133.625797,17.5656522 133.053333,18.0598551 C132.482319,18.5497101 132.035942,18.9497101 131.714203,19.2598551 C131.038841,19.4308696 130.443188,19.5149275 129.925797,19.5149275 C128.969275,19.5149275 128.091014,19.2786957 127.286667,18.8033333 C126.489565,18.3308696 125.867826,17.6453623 125.431594,16.7453623 C124.996812,15.8424638 124.77942,14.8308696 124.77942,13.712029 C124.77942,12.8627536 124.914203,12.0613043 125.177971,11.3047826 C125.446087,10.5497101 125.777971,9.95985507 126.185217,9.55115942 C126.412754,9.31202899 126.933043,8.9526087 127.743188,8.47144928 C128.556232,7.99028986 129.214203,7.64246377 129.717101,7.42797101 C130.222899,7.21202899 130.770725,7.10478261 131.36058,7.10478261 C131.892464,7.10478261 132.414203,7.16710145 132.928696,7.29898551 C133.435942,7.43376812 133.931594,7.63086957 134.415652,7.90188406 L134.415652,4.56710145 C134.415652,3.39318841 134.364928,2.67724638 134.263478,2.42362319 C134.228696,2.33231884 134.166377,2.26130435 134.075072,2.22217391 C133.906957,2.14536232 133.322899,2.10333333 132.321449,2.09463768 L132.321449,2.09463768 Z M134.415652,10.0685507 C133.843188,9.43376812 133.238841,8.97 132.606957,8.6815942 C131.977971,8.39173913 131.36058,8.24536232 130.750435,8.24536232 C130.056232,8.24536232 129.417101,8.42362319 128.838841,8.77434783 C128.251884,9.12942029 127.808406,9.66710145 127.498261,10.385942 C127.191014,11.1018841 127.037391,11.9627536 127.037391,12.9671014 C127.037391,14.512029 127.421449,15.7207246 128.188116,16.5888406 C128.95913,17.4598551 129.882319,17.8917391 130.967826,17.8917391 C131.531594,17.8917391 132.04029,17.7728986 132.482319,17.5381159 C132.934493,17.3004348 133.324348,16.9569565 133.667826,16.4989855 C134.004058,16.0424638 134.221449,15.5366667 134.309855,14.9830435 C134.382319,14.6105797 134.415652,13.6931884 134.415652,12.2352174 L134.415652,10.0685507 Z" id="Fill-37"></path>
                    <path d="M141.808261,10.6289855 L141.134348,10.4507246 C141.145942,10.2550725 141.148841,9.98985507 141.148841,9.64927536 C141.148841,9.2942029 141.145942,9.01304348 141.134348,8.8 C142.206812,8.10144928 143.08942,7.62898551 143.774928,7.3826087 C144.302464,7.20434783 144.892319,7.11449275 145.540145,7.11449275 C146.503913,7.11449275 147.318406,7.29855072 147.979275,7.66086957 C148.638696,8.02463768 149.132899,8.54637681 149.453188,9.22028986 C149.672029,9.69565217 149.779275,10.3405797 149.779275,11.1623188 L149.719855,13.4797101 L149.719855,17.257971 C149.719855,17.6637681 149.753188,17.957971 149.816957,18.1333333 C149.86913,18.2608696 149.953188,18.3565217 150.058986,18.4130435 C150.148841,18.4637681 150.325652,18.4956522 150.593768,18.5144928 L151.416957,18.5898551 L151.416957,19.3144928 C150.722754,19.2536232 150.115507,19.226087 149.59087,19.226087 C149.085072,19.226087 148.40971,19.2536232 147.563333,19.3144928 L147.625652,17.0797101 C145.899565,18.3826087 144.880725,19.115942 144.556087,19.2797101 C144.241594,19.4463768 143.831449,19.5289855 143.341594,19.5289855 C142.318406,19.5289855 141.524203,19.2550725 140.95029,18.7115942 C140.380725,18.1637681 140.095217,17.4391304 140.095217,16.5362319 C140.095217,15.9536232 140.196667,15.4188406 140.393768,14.9376812 C140.587971,14.4565217 140.828551,14.073913 141.111159,13.7913043 C141.38942,13.5086957 141.67058,13.2985507 141.958986,13.1623188 C142.451739,12.9333333 143.247391,12.6927536 144.35029,12.4275362 C145.453188,12.1681159 146.545942,11.9710145 147.625652,11.8463768 C147.637246,11.0405797 147.538696,10.4173913 147.335797,9.96666667 C147.134348,9.51884058 146.792319,9.15072464 146.308261,8.86376812 C145.824203,8.57971014 145.237246,8.43478261 144.547391,8.43478261 C144.047391,8.43478261 143.60971,8.50144928 143.234348,8.63913043 C142.856087,8.77246377 142.63,8.88550725 142.543043,8.97971014 L142.314058,9.43768116 C142.085072,9.94492754 141.918406,10.3405797 141.808261,10.6289855 L141.808261,10.6289855 Z M147.625652,12.6188406 C146.527101,12.8028986 145.58942,13.0101449 144.811159,13.2362319 C144.034348,13.4681159 143.485072,13.7057971 143.163333,13.9492754 C142.972029,14.0913043 142.803913,14.3086957 142.657536,14.5942029 C142.440145,15.0188406 142.325652,15.4869565 142.325652,16.0014493 C142.325652,16.6304348 142.501014,17.1173913 142.845942,17.4681159 C143.196667,17.8188406 143.676377,17.9942029 144.293768,17.9942029 C144.858986,17.9942029 145.415507,17.8304348 145.972029,17.5043478 C146.522754,17.1811594 147.082174,16.6927536 147.625652,16.042029 L147.625652,12.6188406 Z" id="Fill-39"></path>
                    <path d="M151.146377,9.37217391 L151.146377,8.84173913 C151.957971,8.51710145 152.602899,8.22869565 153.085507,7.97942029 L153.085507,4.12144928 C153.963768,3.81855072 154.675362,3.49536232 155.226087,3.14753623 L155.530435,3.39971014 C155.43913,4.10405797 155.337681,5.65043478 155.226087,8.04173913 C155.901449,8.04753623 156.307246,8.05333333 156.444928,8.05333333 C156.52029,8.05333333 156.953623,8.04463768 157.750725,8.03014493 C158.186957,8.02144928 158.518841,8.00405797 158.74058,7.97942029 L158.827536,8.06927536 L158.55942,9.24463768 C158.031884,9.23884058 157.54058,9.23304348 157.091304,9.23304348 C156.643478,9.23304348 156.02029,9.23884058 155.226087,9.24463768 L155.165217,14.4069565 C155.14058,15.6649275 155.146377,16.4171014 155.189855,16.6634783 C155.230435,16.9098551 155.311594,17.1228986 155.424638,17.304058 C155.544928,17.4852174 155.7,17.6315942 155.888406,17.7402899 C156.07971,17.8489855 156.402899,17.9373913 156.856522,17.993913 C157.202899,17.993913 157.482609,17.9765217 157.697101,17.9489855 C157.907246,17.92 158.181159,17.8475362 158.513043,17.7286957 L158.663768,18.2214493 C158.263768,18.5373913 157.882609,18.8605797 157.508696,19.1968116 C157.189855,19.3185507 156.891304,19.3953623 156.610145,19.4344928 C156.331884,19.4721739 156.010145,19.4881159 155.649275,19.4881159 C155.202899,19.4881159 154.846377,19.4402899 154.576812,19.335942 C154.311594,19.235942 154.072464,19.0924638 153.850725,18.9142029 C153.634783,18.7330435 153.450725,18.504058 153.301449,18.2214493 C153.15942,17.9402899 153.065217,17.504058 153.02029,16.9011594 C153.031884,16.3301449 153.047826,15.6982609 153.068116,15.0127536 C153.07971,14.8808696 153.085507,14.7301449 153.085507,14.5692754 L153.085507,9.30985507 L152.565217,9.30985507 C152.142029,9.30985507 151.666667,9.33014493 151.146377,9.37217391" id="Fill-41"></path>
                    <path d="M160.006232,8.87405797 L160.006232,8.15666667 C161.643913,7.96826087 163.022174,7.61463768 164.139565,7.09144928 L164.420725,7.29144928 C164.34971,9.09434783 164.317826,10.4711594 164.317826,11.4262319 L164.317826,13.7349275 C164.356957,15.9334783 164.385942,17.1218841 164.391739,17.2972464 C164.400435,17.7189855 164.445362,18.0276812 164.533768,18.2204348 C164.571449,18.2986957 164.62942,18.363913 164.697536,18.4204348 C164.761304,18.4726087 164.865652,18.5175362 165.001884,18.5523188 C165.052609,18.5595652 165.520725,18.5711594 166.407681,18.5914493 L166.407681,19.3131884 C165.125072,19.2537681 164.097536,19.2247826 163.32942,19.2247826 C162.648261,19.2247826 161.542464,19.2537681 160.006232,19.3131884 L160.006232,18.5914493 L161.219275,18.5769565 C161.396087,18.5711594 161.535217,18.5378261 161.632319,18.4813043 C161.727971,18.4276812 161.806232,18.3566667 161.852609,18.2711594 C161.946812,18.1015942 162.00913,17.8044928 162.035217,17.3711594 C162.035217,17.2610145 162.055507,16.0494203 162.098986,13.7349275 L162.098986,11.5030435 C162.098986,10.2436232 162.055507,9.49289855 161.971449,9.25956522 C161.919275,9.13347826 161.82942,9.03782609 161.696087,8.9726087 C161.568551,8.9073913 161.003333,8.87405797 160.006232,8.87405797 M163.100435,1.46101449 C163.496087,1.46101449 163.83087,1.6015942 164.107681,1.88130435 C164.385942,2.15956522 164.520725,2.49434783 164.520725,2.89289855 C164.520725,3.2842029 164.378696,3.61463768 164.100435,3.89434783 C163.822174,4.17550725 163.485942,4.31318841 163.100435,4.31318841 C162.700435,4.31318841 162.365652,4.17550725 162.085942,3.89434783 C161.807681,3.61463768 161.665652,3.2842029 161.665652,2.89289855 C161.665652,2.49434783 161.807681,2.15956522 162.085942,1.88130435 C162.365652,1.6015942 162.700435,1.46101449 163.100435,1.46101449" id="Fill-43"></path>
                    <path d="M166.406232,13.4737681 C166.406232,11.5795652 167.013478,10.0317391 168.216377,8.83463768 C169.422174,7.63753623 170.965652,7.03898551 172.848261,7.03898551 C174.626522,7.03898551 176.068551,7.59695652 177.185942,8.71869565 C178.298986,9.83028986 178.862754,11.2723188 178.862754,13.0404348 C178.862754,14.2781159 178.574348,15.4071014 177.998986,16.4317391 C177.423623,17.4534783 176.614928,18.2592754 175.562754,18.8375362 C174.517826,19.4157971 173.364203,19.7056522 172.101884,19.7056522 C171.123623,19.7056522 170.294638,19.5389855 169.613478,19.2114493 C168.92942,18.8795652 168.378696,18.4665217 167.954058,17.9665217 C167.536667,17.4694203 167.212029,16.9578261 166.991739,16.4317391 C166.606232,15.5085507 166.406232,14.5230435 166.406232,13.4737681 M168.804783,12.5346377 C168.804783,13.5752174 168.980145,14.6331884 169.326522,15.7071014 C169.677246,16.7824638 170.172899,17.5665217 170.832319,18.0650725 C171.480145,18.5578261 172.194638,18.8042029 172.965652,18.8042029 C173.942464,18.8042029 174.764203,18.4157971 175.425072,17.6346377 C176.083043,16.8563768 176.412029,15.6621739 176.412029,14.0476812 C176.412029,12.7013043 176.216377,11.5404348 175.822174,10.5607246 C175.433768,9.58246377 174.93087,8.89405797 174.322174,8.49115942 C173.712029,8.08681159 173.039565,7.88826087 172.306232,7.88826087 C171.262754,7.88826087 170.422174,8.26507246 169.775797,9.02014493 C169.127971,9.77086957 168.804783,10.9433333 168.804783,12.5346377" id="Fill-45"></path>
                    <path d="M179.350725,19.3133333 L179.350725,18.5915942 L180.562319,18.5771014 C180.744928,18.5713043 180.884058,18.537971 180.978261,18.4814493 C181.076812,18.4278261 181.149275,18.3568116 181.204348,18.2713043 C181.3,18.1017391 181.357971,17.8046377 181.382609,17.3713043 C181.382609,17.2611594 181.401449,16.0495652 181.443478,13.7336232 L181.443478,12.222029 C181.443478,11.5495652 181.431884,10.8234783 181.404348,10.0437681 C181.382609,9.54521739 181.34058,9.25101449 181.285507,9.15681159 C181.231884,9.06405797 181.13913,8.99304348 181.001449,8.94956522 C180.863768,8.89884058 180.315942,8.88434783 179.350725,8.8915942 L179.350725,8.16985507 C181.06087,7.93217391 182.305797,7.62347826 183.092754,7.24376812 C183.263768,7.16115942 183.378261,7.11623188 183.434783,7.11623188 C183.495652,7.11623188 183.54058,7.13797101 183.575362,7.17855072 C183.611594,7.22057971 183.626087,7.2857971 183.626087,7.36985507 C183.626087,7.43072464 183.626087,7.49594203 183.611594,7.57275362 C183.585507,7.87710145 183.562319,8.51768116 183.537681,9.50028986 L185.897101,7.48434783 C186.591304,7.23217391 187.244928,7.10463768 187.857971,7.10463768 C188.544928,7.10463768 189.192754,7.24376812 189.804348,7.52057971 C190.42029,7.79884058 190.87971,8.15246377 191.191304,8.57130435 C191.495652,8.9973913 191.702899,9.52782609 191.804348,10.1727536 C191.866667,10.5524638 191.889855,11.6133333 191.889855,13.353913 L191.889855,15.5973913 C191.889855,16.6944928 191.92029,17.4452174 191.97971,17.8408696 C192.024638,18.095942 192.089855,18.2684058 192.176812,18.3684058 C192.266667,18.464058 192.404348,18.5263768 192.589855,18.5524638 L193.947826,18.5915942 L193.947826,19.3133333 C193.118841,19.253913 192.426087,19.2234783 191.881159,19.2234783 C191.408696,19.2234783 190.618841,19.253913 189.521739,19.3133333 C189.64058,17.2249275 189.7,15.906087 189.7,15.3553623 L189.7,13.2263768 C189.7,11.9002899 189.646377,11.0278261 189.546377,10.6147826 C189.404348,10.0510145 189.078261,9.59304348 188.569565,9.24666667 C188.063768,8.8973913 187.453623,8.72637681 186.734783,8.72637681 C186.097101,8.72637681 185.518841,8.8742029 184.997101,9.17710145 C184.475362,9.4742029 184.095652,9.82202899 183.872464,10.2133333 C183.649275,10.6089855 183.537681,11.2684058 183.537681,12.2017391 L183.537681,13.7336232 C183.575362,15.9307246 183.601449,17.122029 183.601449,17.2944928 C183.617391,17.7176812 183.668116,18.0278261 183.753623,18.2205797 C183.789855,18.2988406 183.83913,18.364058 183.910145,18.4205797 C183.973913,18.4727536 184.082609,18.5176812 184.226087,18.5524638 C184.276812,18.5582609 184.744928,18.5713043 185.627536,18.5915942 L185.627536,19.3133333 C184.6,19.253913 183.663768,19.2234783 182.823188,19.2234783 C182.115942,19.2234783 180.962319,19.253913 179.350725,19.3133333" id="Fill-47"></path>
                </g>
            </g>
            <path d="M298.361014,29.7504348 C298.123333,29.404058 298.107391,29.1272464 298.391449,28.7953623 C298.655217,28.4852174 298.804493,28.1098551 298.636377,27.6808696 C298.453768,27.2257971 298.281304,26.7750725 298.123333,26.3113043 C298.018986,25.9997101 297.881304,25.6649275 297.892899,25.3475362 C297.907391,25.1634783 298.205942,25.0055072 298.345072,24.8171014 C298.462464,24.6649275 298.582754,24.493913 298.627681,24.3113043 C298.779855,23.7069565 298.647971,23.1808696 298.120435,22.7924638 C297.268261,22.1692754 297.011739,21.3605797 297.666812,20.3475362 C298.091449,19.6910145 298.366812,18.9156522 298.094348,18.1808696 C297.791449,17.3562319 297.652319,16.5692754 297.633478,15.6881159 C297.607391,14.7171014 296.897246,14.4069565 296.03058,14.704058 C295.863913,14.762029 295.727681,14.9011594 295.565362,15.0011594 C295.171159,15.2518841 294.772609,15.504058 294.356667,15.7692754 C294.042174,15.2446377 294.087101,14.7576812 294.176957,14.2634783 C294.316087,13.5127536 294.185652,13.193913 293.563913,12.8026087 C293.788551,11.9866667 293.579855,11.6084058 292.561014,10.9286957 C291.81029,10.4243478 291.055217,10.7344928 290.31029,10.9127536 C289.543623,9.8373913 288.603043,9.62 287.503043,10.2127536 C287.381304,10.2808696 287.123333,10.2431884 287.023333,10.1475362 C286.845072,9.98666667 286.700145,9.76202899 286.620435,9.53884058 C286.456667,9.07652174 286.21029,8.7257971 285.746522,8.53449275 C285.64942,8.48956522 285.556667,8.37942029 285.508841,8.28086957 C285.127681,7.45188406 284.52913,7.14608696 283.647971,7.35623188 C283.334928,7.4315942 283.059565,7.42 282.784203,7.20405797 C282.061014,6.64173913 281.181304,6.64173913 280.571159,7.43594203 C280.405942,7.65188406 280.205942,7.76347826 279.859565,7.69391304 C279.123333,7.53594203 278.656667,7.86057971 278.392899,8.57797101 C278.275507,8.89681159 278.168261,9.22 278.032029,9.52724638 C277.658116,10.3344928 277.101594,10.9330435 276.139275,11.1489855 C276.234928,10.5750725 276.711739,10.1417391 276.427681,9.55188406 C276.132029,8.93884058 275.521884,9.03304348 274.966812,8.91855072 C275.056667,8.8026087 275.097246,8.7373913 275.14942,8.68521739 C275.979855,7.81275362 276.375507,6.36347826 275.532029,5.11855072 C274.918986,4.2142029 273.572609,3.95478261 272.736377,4.67072464 C272.54942,4.8257971 272.352319,4.97217391 272.217536,5.07797101 C271.947971,4.78086957 271.736377,4.4373913 271.434928,4.25333333 C270.705942,3.80115942 269.687101,4.0257971 269.058116,4.6084058 C267.987101,5.58811594 268.058116,5.60550725 266.888551,5.12289855 C266.327681,4.89391304 265.798696,5.04173913 265.436377,5.5142029 C265.346522,5.63594203 265.259565,5.75913043 265.175507,5.87507246 C263.636377,5.22869565 263.636377,5.22869565 262.675507,6.34753623 C261.879855,6.19101449 261.440725,6.09391304 260.927681,7.83594203 C260.51029,7.78376812 260.404493,7.7142029 260.174058,7.33449275 C259.905942,6.89826087 259.268261,6.7315942 258.782754,6.9026087 C258.23058,7.10115942 258.155217,7.56782609 258.094348,7.96202899 C257.601594,7.99246377 257.155217,7.99971014 256.721884,8.06202899 C256.536377,8.08666667 256.362464,8.31855072 256.19,8.30550725 C255.403043,8.24463768 254.89,8.62434783 254.458116,9.30695652 C254.236377,9.06492754 253.926232,8.88231884 253.868261,8.6373913 C253.732029,8.07362319 253.903043,7.90985507 254.497246,7.72724638 C255.255217,7.50115942 255.842174,6.96347826 255.266812,6.02869565 C255.191449,5.91130435 255.165362,5.73594203 255.191449,5.59971014 C255.36971,4.68231884 254.871159,4.0257971 253.946522,4.02434783 C253.561014,4.02434783 253.392899,3.90550725 253.361014,3.49536232 C253.340725,3.20115942 253.217536,2.89391304 253.065362,2.63884058 C252.83058,2.24608696 252.316087,2.16347826 252.03058,2.48666667 C251.771159,2.78376812 251.647971,2.66202899 251.363913,2.5084058 C251.024783,2.32869565 250.547971,2.2257971 250.188551,2.3142029 C249.800145,2.41275362 249.933478,2.89536232 249.95087,3.22144928 C249.961014,3.38086957 250.113188,3.52869565 250.137826,3.69101449 C250.158116,3.84608696 250.097246,4.01710145 250.075507,4.17942029 C249.961014,4.09101449 249.794348,4.03304348 249.737826,3.92 C249.303043,3.07362319 248.659565,2.78811594 247.774058,3.11565217 C247.374058,3.25913043 247.013188,3.48666667 246.703043,3.64173913 C246.232029,3.4142029 245.784203,3.19971014 245.339275,2.97217391 C245.287101,2.94463768 245.245072,2.86202899 245.23058,2.79971014 C245.103043,2.27072464 244.724783,2.00985507 244.245072,1.84898551 C244.104493,1.80405797 243.892899,1.73304348 243.859565,1.63014493 C243.720435,1.15623188 243.316087,1.0142029 242.947971,0.834492754 C241.66971,0.189565217 240.514638,0.605507246 239.914638,1.91275362 C239.858116,2.0373913 239.811739,2.17362319 239.721884,2.27362319 C239.494348,2.52289855 239.013188,2.49971014 238.961014,2.2257971 C238.803043,1.43304348 238.237826,1.13449275 237.540725,0.940289855 C237.405942,0.902608696 237.23058,0.780869565 237.187101,0.657681159 C236.978406,0.0344927536 235.959565,-0.252463768 235.440725,0.275072464 C234.916087,0.812753623 234.268261,0.992463768 233.497246,0.808405797 C233.236377,0.740289855 232.863913,0.812753623 232.640725,0.964927536 C232.198696,1.27507246 231.816087,1.67507246 231.432029,2.05333333 C230.839275,2.63884058 230.846522,2.64463768 230.092899,2.3142029 C229.55087,2.07507246 229.03058,1.94318841 228.463913,2.30405797 C228.237826,2.44898551 227.891449,2.48376812 227.613188,2.45043478 C227.017536,2.37942029 226.482754,2.33884058 226.100145,2.93884058 C225.927681,3.2084058 225.653768,3.29826087 225.32913,3.11565217 C224.46971,2.62434783 223.992899,2.69826087 223.233478,3.40115942 C222.91029,3.69826087 222.575507,3.8373913 222.145072,3.56927536 C221.620435,3.24173913 221.043623,3.3142029 220.481304,3.44463768 C219.787101,3.60115942 219.634928,3.77217391 219.595797,4.47942029 C219.585652,4.75188406 219.494348,4.85478261 219.21029,4.86637681 C218.491449,4.89826087 218.266812,5.10550725 218.134928,5.75623188 C218.033478,5.72289855 217.934928,5.68086957 217.833478,5.65043478 C217.047971,5.43594203 216.374058,5.82 216.105942,6.59101449 C216.062464,6.73014493 215.862464,6.86202899 215.711739,6.90695652 C215.036377,7.10985507 214.772609,7.52724638 214.937826,8.19971014 C214.981304,8.37942029 215.047971,8.55913043 215.116087,8.7315942 C215.307391,9.24173913 215.19,9.48956522 214.695797,9.62289855 C214.595797,9.64898551 214.487101,9.67217391 214.397246,9.72289855 C213.800145,10.0721739 213.700145,10.9011594 214.194348,11.3866667 C215.03058,12.2084058 214.852319,12.9982609 213.74942,13.3852174 C213.226232,13.5649275 212.776957,13.835942 212.594348,14.3736232 C212.305942,15.1982609 212.145072,15.3489855 211.295797,15.3489855 C210.705942,15.346087 210.139275,15.4881159 209.863913,16.0272464 C209.497246,16.7417391 208.894348,16.8866667 208.198696,16.9417391 C207.488551,17.0026087 206.942174,17.3808696 206.556667,17.9417391 C206.161014,18.5243478 206.240725,19.1562319 206.517536,19.7968116 C206.621884,20.0344928 206.621884,20.3649275 206.556667,20.6286957 C206.420435,21.2330435 206.416087,21.7924638 206.836377,22.2910145 C207.066812,22.5678261 206.904493,22.6997101 206.653768,22.7315942 C206.481304,22.7591304 206.297246,22.6707246 206.113188,22.6489855 C205.801594,22.6055072 205.487101,22.5446377 205.171159,22.5547826 C204.495797,22.5634783 203.93058,23.0504348 203.195797,22.9591304 C202.407391,22.862029 201.855217,23.7446377 202.14942,24.5069565 C202.224783,24.7069565 202.345072,24.893913 202.445072,25.0895652 C202.424783,25.1257971 202.403043,25.1707246 202.375507,25.1997101 C201.582754,25.9808696 201.600145,26.3011594 202.384203,27.1142029 C202.846522,27.5924638 203.032029,28.2113043 202.859565,28.8649275 C202.739275,29.3228986 202.504493,29.7504348 202.342174,30.2026087 C202.105942,30.8692754 202.303043,31.2591304 202.95087,31.4765217 C203.333478,31.6084058 203.707391,31.7663768 204.11029,31.9214493 C203.865362,32.2475362 203.665362,32.4678261 203.518986,32.7171014 C203.201594,33.2634783 203.347971,33.8605797 203.897246,34.1504348 C204.300145,34.3576812 204.736377,34.3504348 205.136377,34.1084058 C205.362464,33.9707246 205.561014,33.7707246 205.798696,33.6765217 C206.097246,33.5692754 206.434928,33.3142029 206.756667,33.6518841 C206.616087,33.9605797 206.463913,34.2344928 206.362464,34.5171014 C206.142174,35.1142029 206.301594,35.4547826 206.914638,35.6011594 C207.871159,35.8301449 208.81029,35.8678261 209.688551,35.2837681 C209.936377,35.1171014 210.253768,35.0547826 210.539275,34.9417391 C210.568261,34.9866667 210.598696,35.0315942 210.624783,35.0794203 C210.478406,35.2721739 210.327681,35.4591304 210.188551,35.6605797 C209.868261,36.135942 209.997246,36.6707246 210.547971,36.8634783 C211.004493,37.0228986 211.500145,37.0866667 211.988551,37.1417391 C212.546522,37.2069565 212.640725,37.3011594 212.516087,37.8518841 C212.342174,38.6185507 212.62913,39.2692754 213.301594,39.6750725 C213.817536,39.9881159 214.324783,40.3084058 214.82913,40.6388406 C214.936377,40.7113043 215.062464,40.8214493 215.095797,40.9402899 C215.443623,42.0736232 216.707391,42.1823188 217.687101,42.1446377 C218.113188,42.1286957 218.652319,42.0257971 218.946522,42.2301449 C219.74942,42.8055072 220.640725,42.9765217 221.562464,43.0286957 C222.01029,43.0489855 222.203043,43.2634783 222.439275,43.5721739 C222.647971,43.8330435 222.936377,44.0707246 223.234928,44.2098551 C223.498696,44.3388406 223.840725,44.3721739 224.136377,44.3475362 C224.833478,44.293913 225.526232,44.1808696 226.232029,44.0866667 C226.233478,44.1214493 226.236377,44.1968116 226.243623,44.2736232 C226.262464,45.42 226.45087,45.677971 227.592899,45.8591304 C228.084203,45.9344928 228.595797,45.8678261 229.094348,45.8678261 C229.232029,46.7794203 229.384203,46.9721739 230.288551,47.1721739 C230.784203,47.2808696 231.300145,47.3272464 231.804493,47.3924638 C232.485652,47.4866667 232.640725,47.7011594 232.545072,48.3663768 C232.505942,48.6446377 232.514638,48.9301449 232.524783,49.2069565 C232.552319,49.8852174 233.155217,50.277971 233.772609,49.9823188 C234.036377,49.8562319 234.237826,49.8692754 234.446522,50.0518841 C235.308841,50.8214493 235.887101,51.6808696 235.681304,52.9388406 C235.511739,53.9866667 235.742174,54.9823188 236.420435,55.8518841 C237.153768,56.7968116 237.858116,57.7562319 238.572609,58.7127536 C238.698696,58.8910145 238.800145,59.0924638 238.933478,59.3214493 C237.527681,59.3982609 230.494348,59.8953623 225.333478,60.2663768 C222.445072,60.4997101 210.811739,61.5446377 206.236377,62.0837681 C206.198696,62.0924638 206.166812,62.0953623 206.127681,62.104058 L206.127681,62.6982609 L294.32913,62.6982609 L294.32913,62.1272464 C294.26971,62.1098551 294.201594,62.0953623 294.124783,62.0837681 C293.324783,61.9736232 277.043623,60.4301449 271.387101,59.9736232 C267.418986,59.7156522 262.575507,59.3982609 261.579855,59.3605797 C260.76971,59.3301449 259.95087,59.2808696 259.02913,59.2417391 C259.516087,58.4663768 259.947971,57.7402899 260.424783,57.0446377 C260.691449,56.6547826 261.005942,56.2837681 261.35087,55.9605797 C261.804493,55.5388406 262.346522,55.2084058 262.378406,54.4924638 C262.384203,54.3953623 262.458116,54.2924638 262.520435,54.2084058 C262.882754,53.7171014 263.268261,53.2402899 263.603043,52.7286957 C264.036377,52.0591304 264.375507,51.3185507 264.865362,50.6881159 C265.301594,50.1228986 265.823333,49.5663768 266.421884,49.1852174 C267.882754,48.2417391 269.405942,47.3953623 270.916087,46.5272464 C271.278406,46.3214493 271.678406,46.1808696 272.116087,45.9866667 C272.121884,46.2272464 272.13058,46.3518841 272.133478,46.4707246 C272.145072,47.1895652 272.614638,47.6315942 273.32913,47.462029 C273.855217,47.3344928 274.361014,47.0649275 274.836377,46.7910145 C275.072609,46.6576812 275.240725,46.6272464 275.507391,46.6736232 C275.936377,46.7518841 276.408841,46.7968116 276.824783,46.7026087 C277.724783,46.4982609 278.192899,45.8910145 278.113188,44.9533333 C279.305942,44.7547826 279.553768,44.3663768 279.327681,43.0576812 C279.59,43.0142029 279.856667,42.9692754 280.114638,42.9243478 C280.261014,43.6765217 280.708841,44.1156522 281.65087,43.7721739 C281.836377,44.0692754 281.95087,44.4185507 282.194348,44.6055072 C283.01029,45.2649275 284.814638,45.477971 285.607391,44.1576812 C285.716087,43.9852174 285.981304,43.846087 286.197246,43.8069565 C287.481304,43.5605797 288.556667,42.9794203 289.324783,41.8924638 C289.514638,41.6301449 289.675507,41.335942 289.837826,41.0707246 C290.103043,41.1895652 290.294348,41.2910145 290.497246,41.3605797 C291.136377,41.5866667 291.272609,41.5055072 291.501594,40.8968116 C291.691449,40.3881159 291.892899,39.8808696 292.158116,39.4026087 C292.343623,39.0707246 292.63058,38.9286957 293.066812,39.1446377 C293.620435,39.4185507 294.242174,39.4373913 294.707391,38.9750725 C295.091449,38.5968116 295.365362,38.1113043 295.727681,37.6171014 C295.846522,37.6171014 296.061014,37.6214493 296.278406,37.6171014 C297.076957,37.6069565 297.34942,37.4156522 297.458116,36.6315942 C297.523333,36.1388406 297.507391,35.6301449 297.440725,35.1402899 C297.355217,34.5417391 297.176957,33.9547826 297.027681,33.3142029 C297.211739,33.3866667 297.347971,33.4518841 297.488551,33.493913 C298.494348,33.793913 298.823333,33.4489855 298.96971,32.5910145 C299.137826,31.5881159 298.943623,30.6113043 298.361014,29.7504348 M249.217536,49.4605797 C249.123333,50.02 249.034928,50.5808696 248.895797,51.1315942 C248.813188,51.4692754 248.666812,51.7982609 248.518986,52.1171014 C248.085652,53.0678261 247.947971,54.0765217 247.981304,55.1011594 C248.024783,56.4504348 247.743623,57.7084058 247.126232,58.893913 C247.061014,59.0243478 246.868261,59.1663768 246.733478,59.1692754 C245.674058,59.193913 244.61029,59.2489855 243.556667,59.1576812 C243.166812,59.1243478 242.768261,58.7692754 242.439275,58.4837681 C241.388551,57.5663768 240.359565,56.6214493 239.339275,55.6750725 C238.440725,54.8344928 238.046522,53.7736232 238.017536,52.562029 C238.008841,52.2055072 238.014638,51.846087 238.017536,51.4866667 C238.017536,50.4721739 238.517536,49.8286957 239.526232,49.8721739 C240.318986,49.9069565 240.966812,49.7026087 241.624783,49.3431884 C242.055217,49.1055072 242.45087,49.1142029 242.916087,49.3692754 C244.059565,50.0026087 245.532029,49.3069565 245.721884,48.2373913 C245.733478,48.1663768 245.797246,48.104058 245.836377,48.0388406 C246.637826,48.5475362 247.108841,48.5026087 248.108841,47.7721739 C248.463913,48.2084058 248.837826,48.6330435 249.184203,49.0823188 C249.24942,49.1678261 249.237826,49.3344928 249.217536,49.4605797 M263.684203,47.1026087 C263.407391,47.5605797 263.236377,48.0765217 263.034928,48.5736232 C262.756667,49.2533333 262.279855,49.7475362 261.639275,50.0692754 C261.188551,50.3011594 260.895797,50.6084058 260.705942,51.0895652 C260.200145,52.377971 259.543623,53.5707246 258.578406,54.5997101 C258.152319,55.0518841 257.845072,55.635942 257.568261,56.1997101 C256.945072,57.462029 255.847971,58.1272464 254.661014,58.7330435 C254.156667,58.9968116 253.671159,59.1228986 253.113188,59.0997101 C252.395797,59.1286957 251.774058,59.0924638 251.046522,59.0924638 C250.874058,58.3228986 250.659565,57.6011594 250.561014,56.8634783 C250.31029,55.0663768 250.632029,53.3301449 251.327681,51.662029 C251.555217,51.1185507 251.756667,50.5605797 252.005942,50.0228986 C252.185652,49.6446377 252.387101,49.2692754 252.645072,48.9446377 C252.965362,48.5417391 253.392899,48.3837681 253.933478,48.5142029 C254.572609,48.6721739 255.22913,48.7924638 255.882754,48.8446377 C256.594348,48.8953623 256.840725,48.6127536 256.845072,47.9171014 C256.845072,47.7924638 256.834928,47.6678261 256.847971,47.5402899 C256.865362,47.3228986 256.916087,47.177971 257.220435,47.2402899 C257.534928,47.2968116 257.872609,47.262029 258.198696,47.262029 C258.943623,47.262029 259.223333,46.9997101 259.279855,46.2446377 C259.294348,46.0808696 259.346522,45.9185507 259.391449,45.7069565 C259.926232,46.1837681 260.337826,46.4982609 261.232029,45.8533333 C261.539275,46.7214493 262.198696,46.7185507 262.937826,46.5272464 C263.079855,46.4866667 263.256667,46.4852174 263.397246,46.5272464 C263.663913,46.6156522 263.940725,46.6823188 263.684203,47.1026087" id="qf-logo-sidra"></path>
        </g>
</defs>
</svg>